HIERARCHY
ROOT Hips
{
	OFFSET -0.001795 -0.223333 0.028219
	CHANNELS 6 Xposition Yposition Zposition Zrotation Yrotation Xrotation 
	JOINT LeftUpLeg
	{
		OFFSET 0.069520 -0.091406 -0.006815
		CHANNELS 3 Zrotation Yrotation Xrotation
		JOINT LeftLeg
		{
			OFFSET 0.034277 -0.375199 -0.004496
			CHANNELS 3 Zrotation Yrotation Xrotation
			JOINT LeftFoot
			{
				OFFSET -0.013596 -0.397961 -0.043693
				CHANNELS 3 Zrotation Yrotation Xrotation
				JOINT LeftToe
				{
					OFFSET 0.026358 -0.055791 0.119288
					CHANNELS 3 Zrotation Yrotation Xrotation
					End Site
					{
						OFFSET 0.000000 0.000000 0.000000
					}
				}
			}
		}
	}
	JOINT RightUpLeg
	{
		OFFSET -0.067670 -0.090522 -0.004320
		CHANNELS 3 Zrotation Yrotation Xrotation
		JOINT RightLeg
		{
			OFFSET -0.038290 -0.382569 -0.008850
			CHANNELS 3 Zrotation Yrotation Xrotation
			JOINT RightFoot
			{
				OFFSET 0.015774 -0.398415 -0.042312
				CHANNELS 3 Zrotation Yrotation Xrotation
				JOINT RightToe
				{
					OFFSET -0.025372 -0.048144 0.123348
					CHANNELS 3 Zrotation Yrotation Xrotation
					End Site
					{
						OFFSET 0.000000 0.000000 0.000000
					}
				}
			}
		}
	}
	JOINT Spine
	{
		OFFSET -0.002533 0.108963 -0.026696
		CHANNELS 3 Zrotation Yrotation Xrotation
		JOINT Spine1
		{
			OFFSET 0.005487 0.135180 0.001092
			CHANNELS 3 Zrotation Yrotation Xrotation
			JOINT Spine2
			{
				OFFSET 0.001457 0.052922 0.025425
				CHANNELS 3 Zrotation Yrotation Xrotation
				JOINT Neck
				{
					OFFSET -0.002778 0.213870 -0.042857
					CHANNELS 3 Zrotation Yrotation Xrotation
					JOINT Head
					{
						OFFSET 0.005152 0.064970 0.051349
						CHANNELS 3 Zrotation Yrotation Xrotation
						End Site
						{
							OFFSET 0.000000 0.000000 0.000000
						}
					}
				}
				JOINT LeftShoulder
				{
					OFFSET 0.078845 0.121749 -0.034090
					CHANNELS 3 Zrotation Yrotation Xrotation
					JOINT LeftArm
					{
						OFFSET 0.090977 0.030469 -0.008868
						CHANNELS 3 Zrotation Yrotation Xrotation
						JOINT LeftForeArm
						{
							OFFSET 0.259612 -0.012772 -0.027456
							CHANNELS 3 Zrotation Yrotation Xrotation
							JOINT LeftHand
							{
								OFFSET 0.249234 0.008986 -0.001171
								CHANNELS 3 Zrotation Yrotation Xrotation
								End Site
								{
									OFFSET 0.000000 0.000000 0.000000
								}
							}
						}
					}
				}
				JOINT RightShoulder
				{
					OFFSET -0.081759 0.118833 -0.038615
					CHANNELS 3 Zrotation Yrotation Xrotation
					JOINT RightArm
					{
						OFFSET -0.096012 0.032551 -0.009143
						CHANNELS 3 Zrotation Yrotation Xrotation
						JOINT RightForeArm
						{
							OFFSET -0.253742 -0.013329 -0.021401
							CHANNELS 3 Zrotation Yrotation Xrotation
							JOINT RightHand
							{
								OFFSET -0.255298 0.007772 -0.005559
								CHANNELS 3 Zrotation Yrotation Xrotation
								End Site
								{
									OFFSET 0.000000 0.000000 0.000000
								}
							}
						}
					}
				}
			}
		}
	}
}
MOTION
Frames: 16
Frame Time: 0.050000
0.000000 0.937703 0.000000 0.654154 18.859632 -1.978592 6.212013 -2.390254 -27.594648 -9.757404 -0.733203 47.560686 9.598421 20.005446 2.974472 0.000000 0.000000 0.000000 7.755339 0.349254 -1.956286 -0.793166 0.140666 17.522376 -1.253703 -2.301690 -5.991161 0.000000 0.000000 0.000000 -2.503841 -0.326198 9.413571 1.376926 0.558191 -22.159665 2.390653 -1.019726 28.972109 4.421368 -0.132915 -19.874699 0.000000 0.000000 0.000000 -14.983553 5.193637 -5.420766 -59.164035 4.865352 -12.331522 -18.932148 -31.067526 6.171528 0.000000 0.000000 0.000000 4.002876 1.751884 1.042119 66.267737 9.155435 -2.014748 4.960842 39.158749 4.956888 0.000000 0.000000 0.000000 
0.018458 0.935892 0.055520 0.818970 18.267067 -1.695072 7.556354 -2.229384 -28.632743 -8.141228 0.298327 25.385944 3.930254 12.530166 11.152923 0.000000 0.000000 0.000000 8.081469 -0.309020 1.619876 -2.801971 0.772598 16.632861 -0.468738 0.008482 -5.371303 0.000000 0.000000 0.000000 -2.858933 -0.299155 9.473032 0.849350 0.666857 -24.671354 3.228237 -1.274601 29.680648 3.741155 0.489885 -21.724573 0.000000 0.000000 0.000000 -13.319750 7.064911 -5.791287 -60.483003 8.052197 -14.433740 -21.835358 -29.739413 6.738604 0.000000 0.000000 0.000000 1.115929 1.572384 0.659479 68.441340 9.202180 -1.644484 6.253247 41.241694 5.903843 0.000000 0.000000 0.000000 
0.037873 0.927201 0.112707 -0.061172 14.883204 -2.473906 6.030594 -2.167452 -27.637070 -2.330979 -0.052349 8.197228 -2.299586 6.309418 20.705094 0.000000 0.000000 0.000000 7.414794 -1.177030 6.258567 -1.146576 0.445744 16.853648 -0.344690 1.444984 -7.077884 0.000000 0.000000 0.000000 -2.303136 -0.278975 8.593953 1.302749 0.506763 -24.580413 3.095448 0.580566 31.541988 2.932540 1.032087 -21.812991 0.000000 0.000000 0.000000 -13.158322 8.260562 -6.276213 -59.552549 9.597818 -15.059805 -21.216128 -28.846235 6.399745 0.000000 0.000000 0.000000 -0.154471 3.045030 1.051159 68.112924 10.263500 -1.048811 5.637681 43.796269 6.135855 0.000000 0.000000 0.000000 
0.058453 0.918060 0.172021 0.397985 11.723928 -3.456127 5.549507 -1.665244 -23.727227 -2.099803 0.189893 -0.454193 -5.619294 3.318616 25.936716 0.000000 0.000000 0.000000 6.661396 -2.206608 12.002549 -3.569238 1.241920 16.337351 0.112378 3.923036 -8.016657 0.000000 0.000000 0.000000 -2.960558 -0.223966 8.626623 0.882177 0.563560 -24.209116 4.246521 1.363921 32.082787 2.949020 0.793264 -21.341752 0.000000 0.000000 0.000000 -12.957914 9.377174 -6.537068 -61.231734 11.392600 -16.467748 -19.038084 -28.650685 5.963677 0.000000 0.000000 0.000000 -0.605355 4.386817 1.473318 67.076828 11.511355 -0.661733 5.032940 44.484415 5.807655 0.000000 0.000000 0.000000 
0.080722 0.908243 0.233477 0.656737 10.351912 -3.805223 4.515041 -1.785805 -23.744388 -1.578646 0.012437 4.669908 -5.326183 2.722804 24.049612 0.000000 0.000000 0.000000 5.394514 -2.692900 15.536359 -5.373340 1.873233 18.194021 1.419196 7.632651 -6.636151 0.000000 0.000000 0.000000 -4.028051 -0.139939 8.005490 1.321353 0.425115 -23.809356 5.097675 2.118681 32.998762 3.608001 0.375735 -21.446542 0.000000 0.000000 0.000000 -13.851458 7.838974 -6.003715 -62.067033 11.592437 -16.867491 -15.359348 -28.256837 4.997677 0.000000 0.000000 0.000000 0.288967 3.411077 1.212335 66.313094 11.973856 -0.654315 4.915961 45.383862 6.007581 0.000000 0.000000 0.000000 
0.102842 0.904861 0.295188 0.936739 10.648794 -3.951578 3.200709 -2.117282 -24.440878 -1.490395 -0.368378 13.201016 -4.068045 2.271406 18.664556 0.000000 0.000000 0.000000 3.883639 -2.388912 15.045867 -4.582086 1.949608 26.751053 3.008236 8.534229 -0.795297 0.000000 0.000000 0.000000 -5.052175 -0.086049 7.473348 1.707207 0.313400 -23.081861 4.694668 1.635948 32.855952 4.434442 -0.294199 -20.964515 0.000000 0.000000 0.000000 -13.583307 7.728389 -5.811511 -61.796127 11.001782 -16.427630 -13.581491 -28.206735 4.556323 0.000000 0.000000 0.000000 0.522278 3.306061 1.200329 67.537065 9.748581 -1.954159 4.012684 45.014611 5.570780 0.000000 0.000000 0.000000 
0.122159 0.911266 0.353242 2.189400 8.891690 -3.766956 1.431573 -2.295092 -23.656817 -1.570581 -0.634115 19.411642 -1.938928 3.230345 13.921487 0.000000 0.000000 0.000000 1.101728 -1.244851 9.978841 -2.805501 1.625876 39.446544 5.083814 5.610342 12.578005 0.000000 0.000000 0.000000 -7.227266 0.030663 7.175102 2.614656 0.029099 -22.467841 4.608149 1.621609 32.669028 4.992454 -0.860824 -21.058489 0.000000 0.000000 0.000000 -13.945506 7.241403 -5.417890 -61.361388 8.381396 -14.870666 -12.313568 -27.754237 4.270362 0.000000 0.000000 0.000000 0.755670 2.530572 0.930245 68.006980 7.790593 -3.396301 6.698181 44.103147 6.333513 0.000000 0.000000 0.000000 
0.136381 0.922672 0.403992 2.988966 6.779366 -3.183020 1.541279 -1.812457 -20.163274 -3.690620 0.046543 18.953563 -0.615177 4.340693 11.971571 0.000000 0.000000 0.000000 -1.929800 -0.249121 2.766953 0.357546 0.279224 51.808135 5.042734 0.617404 22.639544 0.000000 0.000000 0.000000 -8.102417 0.115596 7.440970 2.917565 -0.090052 -22.387920 3.516876 0.075456 32.623066 4.593655 -1.134667 -20.824920 0.000000 0.000000 0.000000 -12.718410 6.164352 -4.119999 -61.145846 5.590844 -13.313743 -12.886903 -27.555474 4.609567 0.000000 0.000000 0.000000 1.697434 3.224253 1.212868 68.062209 6.714262 -4.793762 7.595385 42.993155 6.145069 0.000000 0.000000 0.000000 
0.145479 0.935487 0.448556 2.551979 4.350718 -3.539858 2.819397 -1.045084 -14.270876 -5.265640 0.599651 15.074973 0.212326 5.158885 11.142547 0.000000 0.000000 0.000000 -2.986891 0.303259 -3.975290 4.976920 -2.260454 58.564494 -0.298128 -9.901816 31.506993 0.000000 0.000000 0.000000 -7.835927 0.158663 8.980758 2.828461 -0.114980 -22.211338 2.468044 -2.235953 32.478612 4.112942 -1.422722 -21.453706 0.000000 0.000000 0.000000 -12.108414 5.789114 -3.236325 -61.139648 2.644090 -11.615704 -12.942336 -29.369642 5.293449 0.000000 0.000000 0.000000 1.868166 3.452084 1.217888 69.265731 6.326871 -5.920849 7.588834 42.409213 5.650291 0.000000 0.000000 0.000000 
0.151220 0.947417 0.489975 1.896874 1.478284 -3.722308 4.060785 -0.472957 -8.004685 -6.278602 0.868833 9.858498 1.017249 6.290091 11.405102 0.000000 0.000000 0.000000 -3.350969 0.743837 -10.232505 9.841451 -4.747252 59.366338 -7.495767 -19.173350 32.341403 0.000000 0.000000 0.000000 -7.325727 0.190464 10.375852 3.624451 -0.327028 -23.097220 1.101813 -3.903062 33.018454 3.943654 -1.873202 -21.851007 0.000000 0.000000 0.000000 -12.256881 5.020762 -2.345117 -59.513393 -1.056421 -9.426171 -13.125449 -30.989000 5.972917 0.000000 0.000000 0.000000 3.010780 3.550687 1.118126 69.058634 6.716143 -6.481704 8.126077 41.350486 5.291939 0.000000 0.000000 0.000000 
0.154874 0.954721 0.529737 0.898291 -1.398977 -3.917136 5.283726 -0.085467 -2.130920 -6.193729 0.827927 5.235530 1.049506 6.121256 11.595425 0.000000 0.000000 0.000000 -3.689090 1.131920 -15.583058 14.680352 -6.625361 54.947533 -9.729374 -22.435675 19.817400 0.000000 0.000000 0.000000 -6.013413 0.131650 11.399699 3.832078 -0.409353 -23.292941 0.152322 -5.511586 33.172498 3.493806 -2.270204 -20.452622 0.000000 0.000000 0.000000 -11.215490 4.423492 -1.563166 -58.699640 -4.575841 -7.410838 -11.999343 -32.557998 6.256616 0.000000 0.000000 0.000000 3.186559 3.897933 1.074072 69.459332 6.356595 -7.411906 8.435097 40.728320 4.896645 0.000000 0.000000 0.000000 
0.156925 0.955445 0.568728 0.299965 -4.309084 -3.900757 5.983355 0.167895 2.546131 -6.053805 0.782613 1.824331 1.231045 6.247485 12.028236 0.000000 0.000000 0.000000 -3.778561 1.559227 -20.148840 18.348939 -6.993404 46.796354 -10.046483 -23.513601 11.063159 0.000000 0.000000 0.000000 -4.945743 0.093370 13.005789 4.065293 -0.421343 -24.540271 -0.764181 -7.155985 33.333184 3.316337 -2.684699 -20.745353 0.000000 0.000000 0.000000 -9.638170 4.248262 -1.142110 -58.368593 -7.561799 -5.505712 -11.715997 -36.345862 7.361576 0.000000 0.000000 0.000000 2.821557 3.148138 0.654590 70.035785 5.721728 -8.569101 9.124516 39.424462 4.499809 0.000000 0.000000 0.000000 
0.157067 0.951312 0.607795 0.221899 -6.989329 -4.106161 5.444351 0.472104 7.059058 -5.165332 0.651423 -1.210628 1.985875 7.311052 12.367582 0.000000 0.000000 0.000000 -4.031224 1.809063 -22.268680 18.698435 -5.051739 32.809788 -12.906649 -28.210087 13.715856 0.000000 0.000000 0.000000 -4.567511 0.114321 13.921928 4.432391 -0.517213 -24.808230 -1.341998 -8.237751 33.195905 3.418559 -3.050868 -21.997975 0.000000 0.000000 0.000000 -7.740021 3.481376 -0.694856 -58.204278 -10.742043 -3.396599 -10.639424 -39.262695 7.927856 0.000000 0.000000 0.000000 1.470800 2.722401 0.579906 70.718059 5.266862 -9.616861 9.740948 38.607759 4.217991 0.000000 0.000000 0.000000 
0.154567 0.944606 0.647372 0.650528 -9.847806 -4.098884 4.131312 0.884408 10.737293 -4.353327 0.575063 -3.168575 3.515428 9.612934 12.544159 0.000000 0.000000 0.000000 -3.027871 2.082010 -22.165200 14.324657 -2.188919 16.290083 -16.119819 -31.733236 22.685406 0.000000 0.000000 0.000000 -4.056964 0.130644 14.624674 3.822190 -0.323512 -25.827491 -1.305279 -9.738094 33.570193 2.822413 -3.254529 -21.509275 0.000000 0.000000 0.000000 -6.796063 2.927384 -0.333880 -58.149350 -13.710992 -1.331915 -8.575786 -42.245854 8.158148 0.000000 0.000000 0.000000 -0.439395 2.948573 0.918377 71.724914 5.169062 -10.876097 10.801904 37.993239 4.074484 0.000000 0.000000 0.000000 
0.148522 0.936537 0.687727 1.680501 -12.954709 -3.688007 1.888305 1.382586 12.981259 -3.297198 0.478225 -2.901558 5.215671 12.152089 11.552511 0.000000 0.000000 0.000000 -2.159240 2.241547 -21.441016 10.290754 -0.948815 6.480421 -18.327785 -33.381322 29.711898 0.000000 0.000000 0.000000 -3.873015 0.158205 13.611823 4.100054 -0.365254 -26.212603 -1.906736 -10.086526 33.637958 3.043395 -3.691068 -22.267233 0.000000 0.000000 0.000000 -6.833985 2.926971 -0.175158 -58.492775 -15.834174 0.171880 -6.756879 -43.885277 8.061006 0.000000 0.000000 0.000000 -1.500310 3.887697 1.399773 71.943482 5.031279 -11.767056 10.357224 39.050484 3.708682 0.000000 0.000000 0.000000 
0.137643 0.928466 0.729044 2.967743 -15.574515 -2.783566 0.079846 1.698731 13.520626 -3.090863 0.458609 -0.402350 6.041431 13.404466 10.447773 0.000000 0.000000 0.000000 -1.527719 2.384797 -21.193303 7.750627 -0.563123 4.685928 -18.682662 -33.800646 30.806097 0.000000 0.000000 0.000000 -3.145190 0.081067 11.850952 3.981933 -0.271010 -27.019726 -2.893374 -10.194067 34.446337 2.742133 -3.824829 -22.582637 0.000000 0.000000 0.000000 -7.376547 2.702154 0.182337 -59.159175 -16.689632 0.871450 -4.181833 -44.995254 7.487858 0.000000 0.000000 0.000000 -1.425089 3.137406 1.093697 72.588562 4.174351 -13.071387 10.776374 39.149007 3.585276 0.000000 0.000000 0.000000 
